<?xml version="1.0" encoding="utf-8"?>
<!-- Svg Vector Icons : http://www.onlinewebfonts.com/icon -->
<!DOCTYPE svg PUBLIC "-//W3C//DTD SVG 1.1//EN" "http://www.w3.org/Graphics/SVG/1.1/DTD/svg11.dtd">
<svg version="1.1" xmlns="http://www.w3.org/2000/svg" xmlns:xlink="http://www.w3.org/1999/xlink" x="0px" y="0px" viewBox="0 0 256 256" enable-background="new 0 0 256 256" xml:space="preserve">
<metadata> Svg Vector Icons : http://www.onlinewebfonts.com/icon </metadata>
<g><g><g><path fill="#000000" d="M12.9,30.2c-0.5,0.2-1.3,0.9-1.9,1.4c-0.9,1-0.9,1.8-1.1,82.2c-0.1,72,0,81.4,0.6,82.6c1.5,2.9-0.9,2.8,47.9,2.8H103l-0.3,3.8c-0.5,6.6-1.2,10.2-2.3,12.8c-1.5,3.2-3.6,4.2-8.7,4.3c-3,0-3.7,0.1-4.5,0.9c-1.1,1.1-1.2,2.6-0.2,4.1l0.7,1H128h40.2l0.7-1c1-1.4,0.9-3-0.2-4.1c-0.8-0.8-1.6-0.9-4.5-0.9c-8.1,0-10-2.9-11-16.8l-0.3-4h44.5c48.8,0,46.4,0.1,47.9-2.8c0.6-1.2,0.7-10.6,0.6-82.6l-0.1-81.3l-1.3-1.2l-1.3-1.3l-114.7-0.1C65.5,29.9,13.5,30,12.9,30.2z M235.9,104.6v64.6H128H20.1v-64.6V40H128h107.9V104.6z"/><path fill="#000000" d="M178.5,70.8c-4.5,2.3-6.6,7.3-5.1,11.9l0.6,1.7l-13,13.1l-13.1,13.1l-2.7-0.7c-2.4-0.6-2.9-0.6-5,0.1l-2.3,0.7l-8.1-8l-8.1-8.1l0.6-1.5c2.9-8.4-5.6-16.2-13.7-12.5c-4.4,2-6.9,7.9-5.1,12.3l0.6,1.5l-13.1,13.1l-13.1,13.1l-1.5-0.6c-2.2-0.7-5.6-0.6-7.6,0.4c-9.6,4.4-6.4,19,4.2,19c6.9,0,11.7-6.9,9.4-13.4l-0.6-1.5l13.1-13.1l13.1-13.1l1.7,0.7c1.6,0.7,4.7,0.6,7.2-0.1c0.7-0.2,2.6,1.4,8.9,7.8c7.7,7.7,8,8.1,7.5,9.3c-1.5,4,0.1,9.2,3.8,11.7c4.2,2.8,8.8,2.4,12.4-1.2c3.1-3,4-6.5,2.6-10.3l-0.6-1.7l13.1-13.1c12.7-12.7,13.1-13.1,14.3-12.5c1.9,0.9,6,0.7,8-0.3c9.2-4.8,6.6-17.9-3.8-18.9C181.4,69.5,180.6,69.7,178.5,70.8z"/></g></g></g>
</svg>